<svg width="24" height="24" viewBox="0 0 24 24" fill="none" xmlns="http://www.w3.org/2000/svg">
<path d="M12 6.04212C11.7745 5.78705 11.4019 5.35098 11.2351 5.18414C10.275 4.22409 9.08831 3.69006 7.41667 3.69006C3.91799 3.69006 2 6.15605 2 9.5234C2 11.7895 3.29026 13.5577 5.83167 15.6553L7.31275 16.8408L12 20.5906L16.6872 16.8408C16.7874 16.7606 16.891 16.6783 17.0358 16.5637C17.2154 16.4215 17.3109 16.3458 17.3993 16.2756C17.7007 16.0364 17.9302 15.8517 18.1556 15.6659C20.7082 13.5615 22 11.7948 22 9.5234C22 6.15605 20.082 3.69006 16.5833 3.69006C14.9117 3.69006 13.725 4.22409 12.7649 5.18414C12.5981 5.35098 12.2255 5.78705 12 6.04212Z" fill="black"/>
</svg>
